<svg width="102" height="42" viewBox="0 0 102 42" fill="none" xmlns="http://www.w3.org/2000/svg">
<path d="M20.84 30.76C20.84 32.0133 20.5467 33.0933 19.96 34C19.4 34.88 18.4667 35.6933 17.16 36.44C16.28 36.9733 15.2533 37.3733 14.08 37.64C12.9067 37.9067 11.72 38.04 10.52 38.04C9.29333 38.04 7.77333 37.64 5.96 36.84C4.65333 36.2 3.61333 35.44 2.84 34.56C2.09333 33.68 1.72 32.72 1.72 31.68C1.72 30.96 1.88 30.44 2.2 30.12C2.52 29.7733 3.04 29.6 3.76 29.6C4.13333 29.6 4.52 29.76 4.92 30.08C5.32 30.3733 5.56 30.6667 5.64 30.96C6.01333 32.0533 6.66667 32.8933 7.6 33.48C8.53333 34.04 9.69333 34.32 11.08 34.32C12.68 34.32 14.0133 34.0267 15.08 33.44C16.1733 32.8533 16.72 32.0667 16.72 31.08C16.72 30.12 16.1333 29.2667 14.96 28.52C13.7867 27.7733 12.5867 27.2533 11.36 26.96C9.6 26.48 8.04 25.9067 6.68 25.24C5.26667 24.5467 4.21333 23.6933 3.52 22.68C2.82667 21.6667 2.48 20.6 2.48 19.48C2.48 18.44 2.84 17.3867 3.56 16.32C4.28 15.2267 5.13333 14.44 6.12 13.96C6.65333 13.6933 7.56 13.4133 8.84 13.12C10.1467 12.8 11.0933 12.64 11.68 12.64C12.4533 12.64 13.3067 12.7333 14.24 12.92C15.1733 13.1067 15.9333 13.3733 16.52 13.72C17.6933 14.3867 18.56 14.9867 19.12 15.52C19.68 16.0533 19.96 16.72 19.96 17.52C19.96 18 19.7733 18.4267 19.4 18.8C19.0533 19.1733 18.44 19.36 17.56 19.36C17.3467 19.36 17.1333 19.2667 16.92 19.08C16.7067 18.8933 16.44 18.6133 16.12 18.24C15.6933 17.68 15.28 17.3067 14.88 17.12C14.48 16.9867 13.8933 16.84 13.12 16.68C12.3733 16.52 11.7067 16.44 11.12 16.44C10.48 16.44 9.81333 16.5733 9.12 16.84C8.42667 17.1067 7.84 17.4933 7.36 18C6.90667 18.48 6.68 19.04 6.68 19.68C6.68 20.2133 6.92 20.68 7.4 21.08C7.90667 21.4533 8.50667 21.76 9.2 22C10 22.32 10.8667 22.6 11.8 22.84C13.0267 23.2133 14.0267 23.56 14.8 23.88C15.6 24.1733 16.3733 24.5467 17.12 25C18.4267 25.7733 19.3733 26.5733 19.96 27.4C20.5467 28.2 20.84 29.32 20.84 30.76ZM24.2609 29.52C24.2609 28.5067 24.4476 27.4933 24.8209 26.48C25.1943 25.44 25.6876 24.4933 26.3009 23.64C26.9143 22.7867 27.8876 22.0933 29.2209 21.56C30.5543 21 31.7409 20.72 32.7809 20.72C33.8476 20.72 34.9276 20.8667 36.0209 21.16C37.1409 21.4533 37.9143 21.9067 38.3409 22.52C39.3276 23.9067 39.8209 25.2667 39.8209 26.6C39.8209 27.32 39.6609 27.9333 39.3409 28.44C39.0476 28.9467 38.6209 29.4933 38.0609 30.08C37.6076 30.56 36.8876 30.88 35.9009 31.04C34.9409 31.2 33.9809 31.28 33.0209 31.28C32.4076 31.28 31.6609 31.2267 30.7809 31.12C29.9009 30.9867 29.0476 30.8267 28.2209 30.64C28.2743 31.1733 28.4076 31.6933 28.6209 32.2C28.8343 32.7067 29.0876 33.0933 29.3809 33.36C29.9143 33.8667 30.4609 34.1867 31.0209 34.32C31.6076 34.4533 32.3543 34.52 33.2609 34.52C34.2209 34.52 35.1143 34.36 35.9409 34.04C36.6076 33.8 37.1543 33.68 37.5809 33.68C38.0876 33.68 38.4743 33.84 38.7409 34.16C39.0076 34.4533 39.1409 34.84 39.1409 35.32C39.1409 35.9867 38.7543 36.5333 37.9809 36.96C37.2076 37.3867 36.3143 37.7067 35.3009 37.92C34.3143 38.1067 33.5143 38.2 32.9009 38.2C31.6476 38.2 30.4343 37.9733 29.2609 37.52C28.0876 37.0667 27.1143 36.4267 26.3409 35.6C25.7009 34.8533 25.1943 33.96 24.8209 32.92C24.4476 31.8533 24.2609 30.72 24.2609 29.52ZM32.9809 24.12C32.3943 24.12 31.8076 24.24 31.2209 24.48C30.6343 24.6933 30.1543 25 29.7809 25.4C29.3009 25.9067 28.9676 26.32 28.7809 26.64C28.6209 26.9333 28.5143 27.3467 28.4609 27.88C29.1276 28.0933 30.5143 28.2 32.6209 28.2C33.7676 28.2 34.6476 28.0267 35.2609 27.68C35.9009 27.3333 36.2209 26.88 36.2209 26.32C36.2209 25.76 35.8743 25.2533 35.1809 24.8C34.4876 24.3467 33.7543 24.12 32.9809 24.12ZM49.5634 36.4C49.5634 36.8533 49.3901 37.2533 49.0434 37.6C48.6968 37.9467 48.2701 38.12 47.7634 38.12C46.9634 38.12 46.3768 37.9733 46.0034 37.68C45.6301 37.36 45.4434 36.7867 45.4434 35.96C45.4434 34.9733 45.4168 33.68 45.3634 32.08C45.3101 30.7467 45.2834 29.6267 45.2834 28.72C45.2834 28.2933 45.3101 27.7333 45.3634 27.04C45.4168 26.4 45.4434 25.92 45.4434 25.6C45.3634 25.0933 45.1634 24.68 44.8434 24.36C44.5234 24.0133 44.1101 23.84 43.6034 23.84C43.3634 23.84 43.1634 23.7333 43.0034 23.52C42.8434 23.28 42.7634 23.04 42.7634 22.8C42.7634 22.1867 43.0034 21.72 43.4834 21.4C43.9901 21.08 44.5901 20.92 45.2834 20.92C46.7234 20.92 47.7234 21.7733 48.2834 23.48C48.9768 22.68 49.7634 22.04 50.6434 21.56C51.5501 21.0533 52.4168 20.8 53.2434 20.8C54.2301 20.8 55.1234 21.0667 55.9234 21.6C56.7501 22.1333 57.1634 22.8533 57.1634 23.76C57.1634 24.2667 56.9368 24.7867 56.4834 25.32C56.0568 25.8533 55.6168 26.12 55.1634 26.12C54.9234 26.12 54.7101 26.0667 54.5234 25.96C54.3634 25.8267 54.1634 25.64 53.9234 25.4C53.6568 25.1333 53.4301 24.9467 53.2434 24.84C53.0568 24.7067 52.8434 24.64 52.6034 24.64C52.1768 24.64 51.7768 24.7067 51.4034 24.84C51.0301 24.9733 50.7768 25.1333 50.6434 25.32C50.2168 25.9867 49.8968 26.5867 49.6834 27.12C49.4968 27.6533 49.4034 28.2267 49.4034 28.84C49.4034 29.2933 49.3901 29.6533 49.3634 29.92L49.3234 32.2C49.3234 32.5467 49.3368 32.9333 49.3634 33.36C49.3901 33.7867 49.4168 34.1067 49.4434 34.32C49.5234 35.04 49.5634 35.7333 49.5634 36.4ZM75.8619 38.12C73.8619 38.12 72.5152 37.3467 71.8219 35.8C71.4752 35.0267 71.2485 34.0267 71.1419 32.8C71.0352 31.5467 70.9819 30.08 70.9819 28.4V27.16C70.9819 25.24 70.3419 24.28 69.0619 24.28C68.3152 24.28 67.5685 24.6667 66.8219 25.44C66.0752 26.1867 65.4485 27.1867 64.9419 28.44C64.4619 29.6667 64.2219 30.9467 64.2219 32.28C64.2219 33.16 64.2619 33.96 64.3419 34.68C64.3952 35.5867 64.4219 36.28 64.4219 36.76C64.4219 37.6667 63.7952 38.12 62.5419 38.12C61.9285 38.12 61.3819 37.9867 60.9019 37.72C60.4485 37.4533 60.2219 37.1067 60.2219 36.68C60.3285 35.32 60.3819 33.64 60.3819 31.64L60.3419 26.36C60.3419 25.5067 60.2752 22.3467 60.1419 16.88L60.0219 13.2C60.0219 12.6133 60.2885 12.1067 60.8219 11.68C61.3552 11.2267 61.9552 11 62.6219 11C63.2085 11 63.6352 11.1333 63.9019 11.4C64.1685 11.6667 64.3019 12.08 64.3019 12.64C64.3019 13.3333 64.2885 14.1467 64.2619 15.08C64.2352 15.9867 64.2085 16.68 64.1819 17.16C64.1019 18.52 64.0619 19.88 64.0619 21.24C64.0619 22.5733 64.0352 23.6267 63.9819 24.4C64.7819 23.2267 65.6885 22.36 66.7019 21.8C67.7419 21.2133 68.9552 20.92 70.3419 20.92C71.3552 20.92 72.2885 21.3733 73.1419 22.28C74.0219 23.16 74.5552 24.1733 74.7419 25.32C74.7952 25.9067 74.8219 26.7733 74.8219 27.92L74.7819 30.84C74.7819 31.2933 74.8085 32 74.8619 32.96C74.8885 33.4133 75.0352 33.8933 75.3019 34.4C75.5952 34.9067 75.9285 35.28 76.3019 35.52C76.6485 35.7333 76.8752 35.9467 76.9819 36.16C77.0885 36.3733 77.1419 36.6133 77.1419 36.88C77.1419 37.1467 77.0219 37.4267 76.7819 37.72C76.5419 37.9867 76.2352 38.12 75.8619 38.12ZM82.0116 12.32C82.9449 12.4 83.7582 12.6533 84.4516 13.08C85.1449 13.48 85.4916 14.0933 85.4916 14.92C85.4916 15.5333 85.1982 16.0267 84.6116 16.4C84.0516 16.7467 83.3716 16.92 82.5716 16.92C81.7982 16.92 81.2649 16.72 80.9716 16.32C80.6782 15.92 80.5316 15.5067 80.5316 15.08C80.5316 14.28 80.6116 13.6133 80.7716 13.08C80.9582 12.5467 81.3716 12.2933 82.0116 12.32ZM85.2116 30.04V31.2C85.2116 32.24 85.2382 33.2267 85.2916 34.16C85.3716 35.0667 85.4649 35.9867 85.5716 36.92C85.5716 37.24 85.3849 37.5333 85.0116 37.8C84.6382 38.04 84.2916 38.16 83.9716 38.16C83.4649 38.16 82.9449 38.0667 82.4116 37.88C81.9049 37.6667 81.5982 37.4133 81.4916 37.12C81.3316 36.2667 81.2516 35.5067 81.2516 34.84C81.2516 32.6533 81.1849 30.2 81.0516 27.48C80.9449 25.08 80.8916 23.4 80.8916 22.44C80.8916 21.96 81.1316 21.5467 81.6116 21.2C82.0916 20.8533 82.5982 20.68 83.1316 20.68C83.9049 20.68 84.4382 20.8533 84.7316 21.2C85.0516 21.5467 85.2116 22.0933 85.2116 22.84V30.04ZM92.1659 12.32C93.0993 12.4 93.8993 12.6533 94.5659 13.08C95.2593 13.48 95.6059 14.0933 95.6059 14.92C95.6059 15.5333 95.3259 16.0267 94.7659 16.4C94.2059 16.7467 93.5126 16.92 92.6859 16.92C91.9126 16.92 91.3793 16.72 91.0859 16.32C90.7926 15.92 90.6459 15.5067 90.6459 15.08C90.6459 14.3067 90.7393 13.6533 90.9259 13.12C91.1126 12.56 91.5259 12.2933 92.1659 12.32ZM91.3659 28.84V27.68C91.3659 26.3467 91.2993 25.1333 91.1659 24.04C91.0593 22.92 90.9926 22.2267 90.9659 21.96C90.9926 21.6667 91.1926 21.3867 91.5659 21.12C91.9393 20.8533 92.2726 20.72 92.5659 20.72C93.0726 20.72 93.5793 20.8267 94.0859 21.04C94.6193 21.2267 94.9526 21.4667 95.0859 21.76C95.2193 22.7467 95.2859 23.5067 95.2859 24.04C95.2859 25.2133 95.3393 27.1333 95.4459 29.8L95.4859 31.36L95.5659 32.88C95.5926 33.3067 95.6193 33.8133 95.6459 34.4C95.6726 34.9867 95.6859 35.6533 95.6859 36.4C95.6859 36.9067 95.4326 37.3333 94.9259 37.68C94.4459 38.0267 93.9393 38.2 93.4059 38.2C92.6326 38.2 92.0859 38.0267 91.7659 37.68C91.4726 37.3333 91.3259 36.7867 91.3259 36.04L91.3659 28.84Z" fill="white"/>
<path d="M58 39.7262C58 38.68 58.9096 37.8662 59.9493 37.9821L91.251 41.4722C95.227 41.9156 98.591 38.5622 98.161 34.5845C97.713 30.4523 93.434 27.8984 89.5844 29.4668L60.4171 41.3513C59.2629 41.8216 58 40.9725 58 39.7262Z" fill="url(#paint0_linear_4_16)"/>
<defs>
<linearGradient id="paint0_linear_4_16" x1="209.1" y1="37.3345" x2="192.599" y2="88.7399" gradientUnits="userSpaceOnUse">
<stop stop-color="#DF8908"/>
<stop offset="1" stop-color="#B415FF"/>
</linearGradient>
</defs>
</svg>
